<?xml version="1.0" encoding="UTF-8"?>
<svg id="Layer_1" xmlns="http://www.w3.org/2000/svg" version="1.1" viewBox="0 0 800 800">
  <!-- Generator: Adobe Illustrator 29.1.0, SVG Export Plug-In . SVG Version: 2.1.0 Build 142)  -->
  <defs>
    <style>
      .st0 {
        fill: #024ad8;
      }

      .st1 {
        fill: #fff;
      }
    </style>
  </defs>
  <path class="st1" d="M400,0C179.1,0,0,179.1,0,400s179.1,400,400,400,400-179.1,400-400S620.9,0,400,0Z"/>
  <path class="st0" d="M400,770.5c-3.7,0-7.4,0-11-.2l75.7-208.1h104.2c18.3,0,38.4-14.1,44.6-31.2l82.1-225.6c13.4-36.9-7.7-67.2-47-67.2h-144.6l-121.3,333.3h0l-68.8,188.9C150.9,721.6,29.5,575,29.5,400S144,86.8,300,43.2l-71,195h0l-118,324h78.5l100.3-275.3h59l-100.3,275.3h78.5l93.5-256.9c13.4-36.9-7.7-67.2-47-67.2h-66L383.3,29.9c5.5-.2,11.1-.4,16.7-.4,204.6,0,370.5,165.9,370.5,370.5s-165.9,370.5-370.5,370.5ZM624.2,286.7h-59l-82.6,226.7h59l82.6-226.7h0Z"/>
</svg>
